<?xml version="1.0" standalone="no"?>
<!DOCTYPE svg PUBLIC "-//W3C//DTD SVG 20010904//EN"
 "http://www.w3.org/TR/2001/REC-SVG-20010904/DTD/svg10.dtd">
<svg version="1.0" xmlns="http://www.w3.org/2000/svg"
 width="1280.000000pt" height="1280.000000pt" viewBox="0 0 1280.000000 1280.000000"
 preserveAspectRatio="xMidYMid meet">
<metadata>
Created by potrace 1.15, written by Peter Selinger 2001-2017
</metadata>
<g transform="translate(0.000000,1280.000000) scale(0.100000,-0.100000)"
fill="#000000" stroke="none">
<path d="M5890 12789 c-186 -14 -433 -48 -605 -84 -88 -19 -239 -50 -335 -69
-222 -45 -414 -100 -610 -176 -85 -32 -222 -84 -305 -114 -82 -29 -273 -111
-423 -180 -212 -98 -302 -146 -405 -214 -73 -49 -181 -117 -242 -152 -164 -95
-397 -252 -515 -348 -58 -47 -166 -144 -240 -217 -74 -72 -182 -169 -238 -215
-72 -58 -137 -124 -212 -214 -60 -72 -150 -171 -200 -221 -180 -177 -393 -462
-560 -750 -35 -60 -103 -169 -152 -242 -109 -164 -304 -579 -413 -878 -40
-110 -91 -247 -114 -305 -53 -134 -122 -382 -161 -580 -17 -85 -46 -227 -65
-315 -70 -335 -95 -626 -95 -1115 0 -489 25 -780 95 -1115 19 -88 48 -230 65
-315 39 -198 108 -446 161 -580 23 -58 74 -195 114 -305 109 -299 304 -714
413 -878 49 -73 117 -181 152 -242 167 -288 380 -573 560 -750 50 -49 140
-149 200 -221 75 -90 140 -156 212 -214 56 -46 164 -143 238 -215 74 -73 182
-170 240 -217 118 -96 351 -253 515 -348 61 -35 169 -103 242 -152 103 -68
193 -116 405 -214 150 -69 341 -151 423 -180 83 -30 220 -82 305 -114 196 -76
388 -131 610 -176 96 -19 247 -50 335 -69 334 -70 625 -95 1115 -95 490 0 781
25 1115 95 88 19 239 50 335 69 222 45 414 100 610 176 85 32 223 84 305 114
83 29 273 111 423 180 212 98 302 146 405 214 73 49 182 117 242 152 164 95
397 252 515 348 58 47 166 144 240 217 74 72 182 169 238 215 72 58 137 124
212 214 60 72 150 172 200 221 180 177 393 462 560 750 35 61 103 169 152 242
109 164 304 579 413 878 40 110 91 247 114 305 53 134 122 382 161 580 17 85
46 227 65 315 70 335 95 626 95 1115 0 489 -25 780 -95 1115 -19 88 -48 230
-65 315 -39 198 -108 446 -161 580 -23 58 -74 195 -114 305 -109 299 -304 714
-413 878 -49 73 -117 182 -152 242 -95 164 -252 397 -348 515 -47 58 -144 166
-217 240 -72 74 -169 182 -215 238 -58 72 -124 137 -214 212 -72 60 -171 150
-221 200 -177 180 -462 393 -750 560 -60 35 -169 103 -242 152 -103 68 -193
116 -405 214 -150 69 -340 151 -423 180 -82 30 -220 82 -305 114 -196 76 -388
131 -610 176 -96 19 -247 50 -335 69 -179 37 -420 70 -630 85 -164 12 -829 11
-995 -1z m1005 -44 c227 -16 438 -45 601 -80 65 -14 207 -44 314 -66 247 -50
439 -104 638 -181 86 -33 218 -81 292 -108 225 -79 676 -293 815 -387 66 -44
186 -118 267 -166 318 -186 512 -331 748 -561 74 -73 179 -168 234 -211 68
-55 130 -118 201 -205 57 -69 145 -165 195 -215 192 -188 377 -435 557 -743
48 -81 122 -201 166 -267 99 -148 308 -591 402 -855 34 -96 83 -227 108 -290
59 -152 119 -365 161 -575 19 -93 49 -235 66 -315 69 -323 99 -662 99 -1120 0
-458 -30 -797 -99 -1120 -17 -80 -47 -221 -66 -315 -42 -210 -102 -423 -161
-575 -25 -63 -74 -194 -108 -290 -94 -264 -303 -707 -402 -855 -44 -66 -118
-186 -166 -267 -186 -318 -331 -512 -561 -748 -73 -74 -168 -179 -211 -234
-55 -68 -118 -130 -205 -201 -69 -57 -165 -145 -215 -195 -188 -192 -435 -377
-743 -557 -81 -48 -201 -122 -267 -166 -139 -94 -590 -308 -815 -387 -74 -27
-206 -75 -292 -108 -199 -77 -391 -131 -638 -181 -107 -22 -249 -52 -314 -66
-294 -64 -650 -94 -1096 -94 -446 0 -802 30 -1096 94 -65 14 -207 44 -314 66
-247 50 -439 104 -638 181 -86 33 -218 81 -292 108 -225 79 -676 293 -815 387
-66 44 -186 118 -267 166 -308 180 -555 365 -743 557 -49 50 -146 138 -215
195 -87 71 -150 133 -205 201 -43 55 -138 160 -211 234 -230 236 -375 430
-561 748 -48 81 -122 201 -166 267 -99 148 -308 591 -402 855 -34 96 -83 227
-108 290 -59 152 -119 365 -161 575 -19 94 -49 235 -66 315 -69 323 -99 662
-99 1120 0 458 30 797 99 1120 17 80 47 222 66 315 42 210 102 423 161 575 25
63 74 194 108 290 94 264 303 707 402 855 44 66 118 186 166 267 180 308 365
555 557 743 50 50 138 146 195 215 71 87 133 150 201 205 55 43 160 138 234
211 236 230 430 375 748 561 81 48 201 122 267 166 139 94 590 308 815 387 74
27 206 75 292 108 199 77 391 131 638 181 107 22 249 52 314 66 159 34 373 64
581 79 234 18 776 19 1010 1z"/>
<path d="M6081 12454 c-173 -12 -335 -25 -360 -29 -304 -43 -545 -82 -677
-110 -235 -51 -690 -194 -849 -267 -71 -33 -184 -83 -250 -110 -238 -99 -446
-199 -543 -262 -55 -35 -166 -103 -248 -151 -180 -105 -357 -233 -496 -358
-57 -51 -159 -139 -228 -194 -149 -120 -481 -454 -606 -608 -49 -60 -133 -159
-187 -219 -131 -146 -256 -319 -362 -500 -48 -82 -116 -193 -151 -248 -108
-166 -184 -334 -357 -783 -242 -631 -287 -793 -357 -1289 -28 -193 -49 -395
-63 -607 l-22 -319 22 -317 c12 -175 24 -338 28 -363 100 -709 141 -879 326
-1363 201 -525 324 -802 423 -955 35 -55 103 -166 151 -248 132 -226 238 -361
554 -713 266 -296 316 -346 612 -612 352 -316 487 -422 713 -554 82 -48 193
-116 248 -151 153 -99 430 -222 955 -423 484 -185 654 -226 1363 -326 25 -4
188 -16 363 -28 l317 -22 317 22 c175 12 338 24 363 28 709 100 879 141 1363
326 525 201 802 324 955 423 55 35 166 103 248 151 226 132 361 238 713 554
296 266 346 316 612 612 316 352 422 487 554 713 48 82 116 193 151 248 99
153 222 430 423 955 185 484 226 654 326 1363 4 25 16 188 28 363 l22 317 -22
319 c-14 212 -35 414 -63 607 -70 496 -115 658 -357 1289 -173 449 -249 617
-357 783 -35 55 -103 166 -151 248 -106 181 -231 354 -362 500 -54 60 -138
159 -187 219 -125 154 -457 488 -606 608 -69 55 -171 143 -228 194 -139 125
-316 253 -496 358 -82 48 -193 116 -248 151 -97 63 -305 163 -543 262 -66 27
-178 77 -250 110 -159 73 -614 216 -849 267 -89 19 -269 50 -401 69 -132 20
-252 38 -268 41 -15 2 -161 14 -325 25 -163 11 -313 21 -332 23 -19 2 -176 -7
-349 -19z m785 -1292 c45 -5 90 -13 101 -16 11 -3 48 -8 84 -11 35 -2 80 -9
99 -14 19 -6 60 -11 92 -11 53 0 109 -13 493 -113 72 -19 149 -43 171 -55 23
-12 63 -26 90 -33 27 -7 78 -26 114 -44 36 -18 94 -43 130 -55 85 -30 569
-271 640 -320 30 -20 87 -53 125 -73 39 -19 81 -47 95 -62 14 -15 63 -53 110
-85 47 -32 94 -68 105 -80 11 -12 70 -58 132 -102 75 -53 152 -121 233 -204
66 -69 120 -129 120 -134 0 -4 29 -31 65 -60 35 -28 94 -90 132 -138 37 -48
99 -121 138 -162 40 -41 87 -97 105 -125 18 -27 56 -79 85 -115 28 -36 67 -94
87 -130 68 -127 115 -206 145 -250 17 -25 52 -88 78 -140 26 -52 56 -107 67
-122 10 -15 30 -58 42 -95 13 -38 39 -104 58 -148 19 -44 43 -105 53 -135 10
-30 35 -91 57 -134 21 -44 38 -85 38 -92 0 -6 18 -67 39 -135 22 -68 45 -159
51 -202 6 -43 23 -110 36 -150 15 -44 28 -111 33 -174 5 -56 12 -107 16 -113
4 -6 9 -43 11 -82 2 -39 7 -75 10 -80 40 -64 38 -1134 -1 -1199 -4 -6 -7 -33
-6 -60 1 -73 -180 -798 -217 -869 -16 -30 -37 -89 -47 -130 -29 -122 -314
-682 -455 -895 -62 -94 -130 -191 -151 -216 -22 -26 -39 -53 -39 -61 0 -8 -20
-34 -45 -59 -24 -24 -45 -49 -45 -56 0 -6 -5 -15 -11 -19 -12 -7 -939 912
-939 931 0 5 16 48 35 95 21 51 68 227 120 445 138 582 166 697 187 750 11 28
28 77 38 110 10 33 28 89 40 125 13 36 35 101 50 145 16 44 33 103 39 131 8
41 327 846 597 1508 41 100 45 116 43 188 -1 51 -6 82 -15 89 -8 6 -14 15 -14
20 0 5 -22 31 -49 58 -33 35 -76 64 -134 92 l-87 41 -90 -22 c-83 -20 -94 -26
-130 -67 -23 -26 -50 -74 -65 -116 -15 -40 -51 -124 -82 -187 -30 -63 -91
-211 -135 -330 -44 -118 -105 -275 -135 -349 -30 -74 -82 -207 -114 -295 -33
-88 -64 -166 -68 -174 -5 -8 -26 -21 -47 -28 -50 -18 -84 -5 -103 38 -16 35
-19 10 59 578 77 570 175 1291 241 1778 l41 302 -22 68 c-26 78 -45 102 -118
149 -43 28 -72 38 -145 49 -146 22 -181 19 -246 -20 -31 -18 -72 -39 -92 -46
-27 -10 -45 -26 -67 -64 -41 -70 -48 -98 -71 -276 -66 -510 -254 -2005 -258
-2055 -4 -49 -11 -66 -36 -93 -45 -47 -94 -41 -145 17 -19 22 -22 34 -17 76
16 149 196 2736 192 2766 -7 57 -37 110 -97 170 -46 47 -66 60 -124 78 -100
30 -163 27 -284 -13 -56 -19 -115 -44 -130 -55 -39 -27 -97 -125 -111 -186 -6
-27 -55 -615 -107 -1305 -104 -1357 -94 -1274 -156 -1306 -40 -21 -62 -17
-114 18 l-47 31 7 186 c3 102 11 287 16 411 5 124 14 342 19 485 6 143 15 303
21 355 5 52 10 156 10 229 0 74 5 197 12 272 13 160 6 197 -48 272 -45 62
-100 101 -181 126 -162 51 -328 8 -444 -116 -47 -50 -59 -88 -59 -192 0 -134
-19 -445 -41 -676 -11 -115 -31 -433 -44 -705 -21 -424 -48 -807 -58 -816 -2
-2 -684 679 -1517 1512 l-1515 1515 32 27 c75 62 100 80 143 102 25 12 72 48
105 80 33 31 85 71 115 87 30 17 87 48 125 70 166 95 224 128 295 167 41 23
86 49 100 58 14 9 54 24 90 34 36 9 99 34 140 54 41 21 100 45 130 55 30 10
91 35 134 57 44 21 85 38 92 38 6 0 67 18 135 39 68 22 159 45 202 51 43 6
104 20 135 31 31 11 167 35 302 54 135 19 265 39 290 44 58 12 798 6 906 -7z
m-2353 -3590 l1828 -1828 -2 -89 c-2 -81 -5 -93 -27 -117 -53 -58 -106 -23
-210 137 -84 129 -405 537 -507 645 -34 36 -70 77 -79 92 -22 34 -133 116
-203 152 -36 18 -69 26 -105 26 -29 1 -75 7 -103 14 -41 11 -58 11 -95 1 -25
-8 -64 -16 -88 -20 -23 -4 -55 -17 -70 -29 -15 -13 -40 -26 -56 -30 -61 -15
-186 -165 -186 -223 0 -39 34 -110 74 -158 146 -171 352 -438 378 -490 17 -33
72 -130 124 -216 51 -86 96 -164 100 -173 6 -15 -34 -16 -475 -16 -546 0 -493
-10 -465 90 30 106 48 383 60 898 l5 252 120 0 120 0 -3 77 -3 78 -45 22 c-83
41 -94 62 -120 224 -25 160 -87 342 -139 408 -16 20 -40 59 -54 87 -14 28 -43
63 -64 79 -21 15 -58 47 -83 70 -113 105 -308 196 -460 215 -108 13 -311 13
-420 0 -225 -28 -509 -170 -672 -337 -31 -32 -81 -98 -111 -146 -48 -77 -60
-106 -86 -216 -30 -120 -31 -137 -31 -334 l0 -207 -47 -29 c-79 -49 -103 -71
-128 -121 -14 -27 -29 -51 -35 -55 -6 -4 -10 -91 -10 -238 1 -238 6 -278 44
-329 9 -13 28 -39 42 -58 27 -37 134 -100 171 -100 17 0 23 -7 27 -32 8 -49
36 -324 36 -353 l0 -25 -340 0 -340 0 -5 23 c-3 12 -30 122 -60 245 -32 130
-54 243 -54 271 1 27 -2 54 -6 60 -39 65 -41 1135 -1 1199 3 5 8 41 10 78 3
38 10 85 15 104 6 19 11 60 11 91 0 79 128 587 168 665 12 23 26 63 33 90 7
27 27 78 44 114 18 36 43 99 55 140 29 98 245 522 326 640 17 25 46 74 64 110
34 67 74 123 126 174 17 17 39 47 49 66 10 19 30 49 44 67 14 18 36 46 49 63
13 16 27 30 30 30 4 0 830 -823 1835 -1828z m-826 58 c98 -26 193 -66 303
-127 79 -44 122 -90 239 -252 63 -87 101 -190 137 -371 28 -142 36 -162 80
-210 17 -19 35 -45 39 -57 l6 -23 -820 0 -821 0 0 -50 0 -50 726 0 727 0 -8
-172 c-4 -95 -11 -308 -15 -473 -7 -293 -8 -304 -44 -474 -39 -183 -56 -227
-136 -346 -26 -38 -59 -91 -74 -117 -28 -48 -161 -158 -275 -227 -68 -41 -220
-71 -363 -71 l-98 0 0 -55 0 -55 101 0 c87 0 119 5 242 40 157 45 162 47 297
135 114 74 149 116 269 329 l83 146 540 -2 541 -3 169 -295 c183 -319 232
-412 285 -535 19 -44 55 -118 81 -165 45 -82 115 -231 109 -235 -4 -4 -893
103 -958 115 -64 12 -121 10 -244 -9 -76 -11 -84 -14 -180 -73 -54 -32 -284
-225 -719 -602 l-639 -555 -73 60 c-41 33 -79 70 -85 81 -7 12 -102 114 -213
227 -120 124 -223 238 -255 286 -30 44 -75 103 -100 131 -25 27 -66 88 -91
134 -25 46 -65 106 -90 133 -25 28 -62 80 -82 116 -66 117 -225 435 -238 476
-6 22 -34 87 -60 145 -27 58 -67 164 -88 235 -22 72 -53 158 -71 192 -17 34
-31 75 -30 90 1 28 1 28 11 -4 l11 -33 388 0 389 0 0 28 c0 15 -14 153 -30
307 -16 154 -30 283 -30 286 0 14 -56 29 -110 29 -66 0 -67 0 -131 89 l-39 53
0 199 c0 256 3 265 127 329 l86 45 -2 202 c-1 170 1 215 18 285 11 46 25 111
32 146 13 70 47 126 158 264 107 132 188 187 394 265 259 98 378 106 624 43z
m1553 -3739 c69 -4 187 -20 263 -35 76 -14 168 -26 205 -26 37 0 128 -9 202
-21 159 -26 149 -19 334 -199 89 -87 160 -145 221 -183 112 -70 447 -219 552
-246 43 -12 185 -32 315 -47 215 -23 241 -24 285 -11 27 8 80 15 118 15 65 1
129 10 233 33 23 5 55 9 71 9 46 0 335 169 499 292 l43 32 412 -412 c376 -376
410 -414 392 -424 -11 -7 -40 -30 -65 -53 -61 -57 -416 -293 -526 -349 -49
-26 -132 -71 -184 -101 -111 -64 -170 -93 -340 -170 -186 -85 -645 -234 -780
-255 -41 -6 -104 -19 -140 -30 -91 -27 -232 -50 -295 -49 -29 1 -58 -2 -65 -6
-65 -40 -1115 -40 -1180 0 -7 4 -38 7 -69 6 -32 0 -100 10 -155 24 -54 14
-118 25 -143 25 -72 0 -437 95 -533 139 -47 22 -103 45 -125 52 -22 6 -88 31
-146 55 -58 24 -128 51 -155 60 -94 32 -448 216 -563 293 -64 43 -139 90 -166
104 -28 14 -61 37 -75 52 -14 15 -63 53 -110 85 -47 32 -96 70 -110 85 -14 15
-45 37 -70 50 -25 13 -56 35 -70 51 l-25 27 37 -27 c21 -15 41 -26 47 -24 8 3
983 858 1244 1091 90 80 101 87 140 87 23 0 49 5 57 11 16 10 193 7 420 -10z"/>
<path d="M3479 5686 c-78 -52 -96 -79 -138 -202 -43 -125 -43 -214 0 -360 17
-59 40 -121 52 -139 29 -44 90 -81 168 -102 57 -15 73 -15 127 -3 95 20 160
63 194 130 39 77 78 229 78 303 0 71 -51 238 -90 298 -13 19 -51 54 -86 77
-63 41 -65 42 -152 42 -87 0 -88 0 -153 -44z m241 -74 c0 -4 10 -12 22 -17 13
-6 29 -22 36 -37 7 -16 17 -28 21 -28 5 0 11 -12 14 -27 3 -16 12 -53 21 -83
21 -74 20 -124 -6 -228 -32 -130 -78 -191 -160 -211 -78 -18 -90 -15 -146 42
-41 41 -57 68 -78 127 -23 68 -25 86 -21 186 4 104 7 116 38 174 44 81 93 109
192 110 37 0 67 -3 67 -8z"/>
</g>
</svg>
